# xmcd CD database file
#
# Track frame offsets:
#	150
#	6112
#	24662
#	43937
#	70312
#	94362
#	113250
#	129812
#	153987
#	164462
#	177612
#	199937
#	216887
#	230662
#	238400
#
# Disc length: 3429 seconds
#
# Revision: 0
# Processed by: cddbd v1.4PL0 Copyright (c) Steve Scherf et al.
# Submitted via: CDex 1.40Release
#
DISCID=d30d630f
DTITLE=Various Artist - Songs of the Spirit: The Best of Sweet Grass
DYEAR=1900
DGENRE=Native American
TTITLE0=Eagle Staff Song - Stoney Park
TTITLE1=Traditional Outfit Song - Stoney Park
TTITLE2=Intertribal - White Fish Jrs.
TTITLE3=Intertribal - Red Bull
TTITLE4=Traditional - Sweetgrass
TTITLE5=Original Grass Dance Song - Mandaree
TTITLE6=Traditional - Elk's Whistle
TTITLE7=Honour Song - Seekaskootch
TTITLE8=Intertribal - High Noon
TTITLE9=Sneak Up - White Fish Jrs.
TTITLE10=Dance Forever - Red Bull
TTITLE11=Intertribal - Seekaskootch
TTITLE12=Intertribal - White Fish Jrs.
TTITLE13=Victory Song - Elk's Whistle
TTITLE14=Aude's Journey - Stoney Park
EXTD=ID3G: 64
EXTT0=
EXTT1=
EXTT2=
EXTT3=
EXTT4=
EXTT5=
EXTT6=
EXTT7=
EXTT8=
EXTT9=
EXTT10=
EXTT11=
EXTT12=
EXTT13=
EXTT14=
PLAYORDER=
